<svg width="452" height="350" viewBox="0 0 452 350" fill="none" xmlns="http://www.w3.org/2000/svg">
<path d="M-347 454.5C-347 401.553 -333.194 349.521 -306.945 303.539C-280.695 257.557 -242.91 219.214 -197.317 192.294C-151.725 165.374 -99.9004 150.808 -46.9591 150.033C5.98212 149.257 58.2106 162.3 104.572 187.873C150.934 213.446 189.826 250.666 217.41 295.86C244.995 341.053 260.319 392.658 261.869 445.583C263.42 498.507 251.144 550.921 226.252 597.652C201.361 644.383 164.714 683.816 119.93 712.059L103.792 686.471C144.128 661.033 177.133 625.518 199.552 583.43C221.97 541.341 233.027 494.135 231.63 446.469C230.234 398.802 216.432 352.324 191.588 311.621C166.744 270.917 131.716 237.395 89.9605 214.362C48.205 191.33 1.16541 179.583 -46.5161 180.282C-94.1976 180.98 -140.873 194.099 -181.936 218.344C-222.999 242.59 -257.031 277.123 -280.672 318.537C-304.314 359.951 -316.748 406.813 -316.748 454.5H-347Z" fill="#045752"/>
<path d="M-157 504.5C-157 451.553 -143.194 399.521 -116.945 353.539C-90.6955 307.557 -52.91 269.214 -7.31729 242.294C38.2755 215.374 90.0996 200.808 143.041 200.033C195.982 199.257 248.211 212.3 294.572 237.873C340.934 263.446 379.826 300.666 407.41 345.86C434.995 391.053 450.319 442.658 451.869 495.583C453.42 548.507 441.144 600.921 416.252 647.652C391.361 694.383 354.714 733.816 309.93 762.059L293.792 736.471C334.128 711.033 367.133 675.518 389.552 633.43C411.97 591.341 423.027 544.135 421.63 496.469C420.234 448.802 406.432 402.324 381.588 361.621C356.744 320.917 321.716 287.395 279.96 264.362C238.205 241.33 191.165 229.583 143.484 230.282C95.8024 230.98 49.127 244.099 8.06387 268.344C-32.9992 292.59 -67.0307 327.123 -90.6721 368.537C-114.314 409.951 -126.748 456.813 -126.748 504.5H-157Z" fill="#FAE841"/>
<path d="M-434 304.5C-434 251.553 -420.194 199.521 -393.945 153.539C-367.695 107.557 -329.91 69.2141 -284.317 42.2943C-238.725 15.3744 -186.9 0.807983 -133.959 0.0326538C-81.0179 -0.742737 -28.7894 12.2997 17.5722 37.8729C63.9337 63.446 102.826 100.666 130.41 145.86C157.995 191.053 173.319 242.658 174.869 295.583C176.42 348.507 164.144 400.921 139.252 447.652C114.361 494.383 77.7144 533.816 32.9296 562.059L16.7921 536.471C57.1276 511.033 90.1331 475.518 112.552 433.43C134.97 391.341 146.027 344.135 144.63 296.469C143.234 248.802 129.432 202.324 104.588 161.621C79.7442 120.917 44.716 87.3948 2.96048 64.3624C-38.795 41.33 -85.8346 29.5833 -133.516 30.2816C-181.198 30.9799 -227.873 44.0991 -268.936 68.3445C-309.999 92.5898 -344.031 127.123 -367.672 168.537C-391.314 209.951 -403.748 256.813 -403.748 304.5H-434Z" fill="#FAE841"/>
</svg>
